<svg width="24" height="24" viewBox="0 0 24 24" fill="none" xmlns="http://www.w3.org/2000/svg">
<path d="M11.9444 19.9444C16.3644 19.9444 19.9444 16.3644 19.9444 11.9444C19.9444 7.52435 16.3644 3.94434 11.9444 3.94434C7.52435 3.94434 3.94434 7.52435 3.94434 11.9444C3.94434 16.3644 7.52435 19.9444 11.9444 19.9444Z" fill="#2F88FF" stroke="black" stroke-width="2" stroke-miterlimit="2" stroke-linejoin="round"/>
<path d="M11.9443 15.9444C14.1543 15.9444 15.9443 14.1544 15.9443 11.9444C15.9443 9.73435 14.1543 7.94435 11.9443 7.94435C9.73434 7.94435 7.94434 9.73435 7.94434 11.9444C7.94434 14.1544 9.73434 15.9444 11.9443 15.9444Z" fill="#2F88FF" stroke="black" stroke-width="2" stroke-miterlimit="2" stroke-linejoin="round"/>
<path d="M11.9443 12.9444C12.4943 12.9444 12.9443 12.4944 12.9443 11.9444C12.9443 11.3944 12.4943 10.9444 11.9443 10.9444C11.3943 10.9444 10.9443 11.3944 10.9443 11.9444C10.9443 12.4944 11.3943 12.9444 11.9443 12.9444Z" fill="black"/>
<path d="M11.9443 3.94434V1.94434" stroke="black" stroke-width="2" stroke-miterlimit="2" stroke-linecap="round" stroke-linejoin="round"/>
<path d="M18.9443 21.9444L16.9443 18.4444" stroke="black" stroke-width="2" stroke-miterlimit="2" stroke-linecap="round" stroke-linejoin="round"/>
<path d="M6.94435 18.4444L4.94434 21.9444" stroke="black" stroke-width="2" stroke-miterlimit="2" stroke-linecap="round" stroke-linejoin="round"/>
</svg>
