<svg width="80" height="80" viewBox="0 0 24 24" fill="none" xmlns="http://www.w3.org/2000/svg">
<rect width="24" height="24" fill="none"/>
<path d="M19.52 2.49C17.18 0.150003 12.9 0.620003 9.97 3.55C8.37 5.15 7.45 7.42 7.43 9.01C7.41 10.59 7.69 12.9 6.08 14.51L1.84 18.75L3.26 20.17L7.5 15.93C9.11 14.32 11.42 14.6 13 14.58C14.58 14.56 16.86 13.64 18.46 12.04C21.38 9.11 21.86 4.83 19.52 2.49ZM10.32 11.68C8.79 10.15 9.27 7.07 11.38 4.96C13.49 2.85 16.56 2.37 18.1 3.9C19.63 5.43 19.15 8.51 17.04 10.62C14.93 12.73 11.86 13.21 10.32 11.68ZM18 17C18.53 17 19.04 17.21 19.41 17.59C20.19 18.37 20.19 19.64 19.41 20.42C19.04 20.79 18.53 21 18 21C17.47 21 16.96 20.79 16.59 20.41C15.81 19.63 15.81 18.36 16.59 17.58C16.96 17.21 17.47 17 18 17ZM18 15C17.208 14.9984 16.4333 15.2321 15.7744 15.6714C15.1154 16.1108 14.6017 16.7359 14.2985 17.4676C13.9953 18.1993 13.9163 19.0045 14.0715 19.7812C14.2266 20.5579 14.609 21.271 15.17 21.83C15.95 22.61 16.98 23 18 23C18.792 23.0016 19.5666 22.7679 20.2256 22.3286C20.8846 21.8893 21.3983 21.2641 21.7015 20.5324C22.0047 19.8007 22.0837 18.9955 21.9285 18.2188C21.7734 17.4421 21.391 16.729 20.83 16.17C20.4583 15.7986 20.0171 15.5041 19.5315 15.3033C19.0459 15.1025 18.5255 14.9995 18 15Z" fill="black"/>
</svg>
