<svg width="80" height="80" viewBox="0 0 24 24" fill="none" xmlns="http://www.w3.org/2000/svg">
<path d="M14.5 7C15.8807 7 17 5.8807 17 4.5C17 3.11929 15.8807 2 14.5 2C13.1193 2 12 3.11929 12 4.5C12 5.8807 13.1193 7 14.5 7Z" fill="#2F88FF" stroke="black" stroke-width="2" stroke-miterlimit="2"/>
<path d="M20.5 12C21.3285 12 22 11.3285 22 10.5C22 9.67155 21.3285 9 20.5 9C19.6715 9 19 9.67155 19 10.5C19 11.3285 19.6715 12 20.5 12Z" fill="black"/>
<path d="M8 12L6.865 17.63C6.76 18.285 6.06 18.655 5.46 18.38L2 17" stroke="black" stroke-width="2" stroke-miterlimit="2" stroke-linecap="round" stroke-linejoin="round"/>
<path d="M18.9998 15.0001L11.8798 9.53514C11.4948 9.25014 10.9648 9.28014 10.6098 9.60014L8.1898 11.8151C7.9548 12.0301 7.9748 12.4001 8.2348 12.5901L12.9998 16.0751C13.3598 16.3401 13.5048 16.8151 13.3448 17.2351L11.5598 22.0001" stroke="black" stroke-width="2" stroke-miterlimit="2" stroke-linecap="round" stroke-linejoin="round"/>
</svg>
